<?xml version="1.0" encoding="UTF-8"?><svg xmlns="http://www.w3.org/2000/svg" viewBox="0 0 854.29 127.85"><defs><style>.d{fill:#6e8aa7;}.e{fill:#52517b;}</style></defs><g id="a"/><g id="b"><g id="c"><g><g><path class="e" d="M470.48,12.5h-3.1l-1.03-1.49c-1.95-2.87-6.54-4.82-11.35-4.82h-6.99c-5.16,0-9.52,4.36-9.52,9.52V81.29h-13.76V6.19h-28.97l.65-5.16h70.63l3.44,11.46Z"/><path class="e" d="M532.11,1.03V81.29h-13.88c0-3.21-2.18-5.5-4.47-5.5-.8,0-1.72,.23-2.52,.8-5.04,3.67-11.24,5.73-17.77,5.73-12.84,0-21.44-9.98-21.44-25V10.66c0-5.28,4.36-9.63,9.63-9.63h4.36V57.22c0,9.29,4.82,15.36,12.15,15.36,11.01,0,20.07-9.75,20.07-20.64V1.03h13.88Z"/><path class="e" d="M656.42,121.54c-4.01,4.24-8.83,6.31-13.88,6.31-7.8,0-17.2-4.47-25.91-12.73-8.26-7.91-16.17-19.03-23.96-29.93-7.57-10.78-15.48-21.9-23.62-29.7-2.06-1.95-8.14-6.99-11.24-6.99-2.29,0-4.47,1.83-4.59,4.36v28.44h-13.88V1.03h22.7c17.77,0,29.58,9.29,29.58,23.16,0,10.21-6.08,16.4-16.28,19.03,1.83,1.95,5.73,5.85,9.4,9.17,8.37,7.91,16.17,18.92,23.96,30.04,7.57,10.78,15.59,21.79,23.62,29.58,6.31,5.85,12.5,9.29,16.86,9.29,1.6,0,3.1-.69,4.59-2.29l2.64,2.52Zm-103.2-80.95h8.83c8.71,0,14.45-6.42,14.45-18.58,0-9.75-7.11-16.4-17.77-16.4-2.98,0-5.5,2.41-5.5,5.39v29.58Z"/><path class="e" d="M670.22,1.03V81.29h-10.43l-44.72-63.06v63.06h-5.28V8.6c0-4.13,3.33-7.57,7.57-7.57l2.87,.23s21.33,32.56,33.37,48.62c.69,.69,1.61,1.15,2.52,1.15,1.49,0,3.1-1.15,3.1-3.1V1.03h11.01Z"/><path class="e" d="M732.65,81.29h-14.1l-9.86-30.61h-16.62c-4.24,0-8.03,2.87-9.17,6.88l-6.88,23.73h-3.1l22.13-75.79h.46l5.96-4.01c.69-.57,1.49-.8,2.29-.8,1.72,0,3.44,1.15,4.01,2.98l24.88,77.63Zm-28.32-42.88c0-.92-.23-1.95-.46-2.87l-7.68-24.08-10.55,36.46h9.17c5.39,0,9.52-4.47,9.52-9.52Z"/><path class="e" d="M798.85,8.48v11.12h-2.98l-1.03-.92c-4.47-4.93-9.06-9.52-11.58-11.35-4.13-2.87-8.71-4.47-14.68-4.47-15.37,0-25.57,15.37-25.57,38.3s10.89,36.58,27.17,36.58c7.57,0,12.73-4.13,13.19-9.98v-1.26c0-2.98-.11-9.86-.11-9.86,0-6.31,4.59-11.47,10.32-11.47h3.44v32.68l-2.75,.57c-7.34,2.41-15.82,3.9-26.14,3.9-24.08,0-40.13-16.51-40.13-41.16S744.04,0,768.35,0c7.91,0,11.81,1.15,18.92,3.9l11.58,4.59Z"/><path class="e" d="M854.29,72.24c-.23,1.03-.69,3.56-.92,4.7-.12,1.26-.57,3.32-.8,4.36h-48.5V1.03h46.09c.23,3.32,.69,6.76,1.26,10.09h-3.44l-.46-1.84c-1.15-3.21-4.82-5.39-9.29-5.39h-10.78c-5.16,0-9.52,4.24-9.52,9.4v25.11h26.03v2.87h-16.51c-5.16,0-9.52,4.24-9.52,9.52v27.63h20.29c6.08,0,10.89-1.83,12.15-4.59l.57-1.6h3.32Z"/></g><path class="d" d="M438.49,38.66v5.02c-20.75,0-37.62,16.87-37.62,37.62h-5.02c0-20.75-16.87-37.62-37.62-37.62v-5.02c20.75,0,37.62-16.88,37.62-37.63h5.02c0,20.75,16.87,37.63,37.62,37.63Z"/><g><path class="e" d="M68.91,81.29h-13.19V19.95l-21.33,61.34h-4.47c-7.11-17.66-14.68-36-21.9-53.66l-2.87-7.11v60.77H0V8.6C0,4.47,3.33,1.03,7.57,1.03h6.08l18.92,52.17c.57,1.38,1.72,2.06,2.98,2.06s2.41-.8,2.98-2.18L54.01,6.19c1.03-3.1,3.9-5.16,7.22-5.16h7.68V81.29Z"/><path class="e" d="M131.38,81.29h-14.1l-9.86-30.61h-16.62c-4.24,0-8.03,2.87-9.17,6.88l-6.88,23.73h-3.1L93.77,5.5h.46l5.96-4.01c.69-.57,1.49-.8,2.29-.8,1.72,0,3.44,1.15,4.01,2.98l24.88,77.63Zm-28.32-42.88c0-.92-.23-1.95-.46-2.87l-7.68-24.08-10.55,36.46h9.17c5.39,0,9.52-4.47,9.52-9.52Z"/><path class="e" d="M250.87,121.54c-4.01,4.24-8.83,6.31-13.88,6.31-7.8,0-17.2-4.47-25.91-12.73-8.26-7.91-16.17-19.03-23.96-29.93-7.57-10.78-15.48-21.9-23.62-29.7-2.06-1.95-8.14-6.99-11.24-6.99-2.29,0-4.47,1.83-4.59,4.36v28.44h-13.88V1.03h22.7c17.77,0,29.58,9.29,29.58,23.16,0,10.21-6.08,16.4-16.28,19.03,1.83,1.95,5.73,5.85,9.4,9.17,8.37,7.91,16.17,18.92,23.96,30.04,7.57,10.78,15.59,21.79,23.62,29.58,6.31,5.85,12.5,9.29,16.86,9.29,1.61,0,3.1-.69,4.59-2.29l2.64,2.52ZM147.67,40.59h8.83c8.71,0,14.45-6.42,14.45-18.58,0-9.75-7.11-16.4-17.77-16.4-2.98,0-5.5,2.41-5.5,5.39v29.58Z"/><path class="e" d="M218.11,1.03V81.29h-13.87V10.66c0-5.28,4.36-9.63,9.63-9.63h4.24Z"/><path class="e" d="M268.8,60.88c0,12.96-8.48,21.56-21.1,21.56-9.06,0-17.31-1.26-22.02-10.2l-.34-.8c-.23-.34-.23-.69-.23-1.15,0-1.26,1.03-2.41,2.41-2.41h2.06c3.67,8.37,8.03,11.24,18.12,11.24,6.31,0,10.55-5.73,10.55-14.33,0-8.03-2.75-12.73-14.33-16.97-14.1-5.16-21.33-15.02-21.33-26.03C222.6,8.83,231.08,.12,243.69,.12c9.06,0,17.31,1.37,21.9,10.32l.46,.69c.12,.46,.23,.8,.23,1.15,0,1.38-1.03,2.52-2.52,2.52h-1.95c-3.67-8.48-8.14-11.35-18.12-11.35-6.42,0-10.66,5.85-10.66,14.45,0,6.19,6.42,12.61,17.89,16.97,16.39,5.62,17.89,17.88,17.89,26.03Z"/><path class="e" d="M316.92,60.88c0,12.96-8.48,21.56-21.1,21.56-9.06,0-17.31-1.26-22.02-10.2l-.34-.8c-.23-.34-.23-.69-.23-1.15,0-1.26,1.03-2.41,2.41-2.41h2.06c3.67,8.37,8.03,11.24,18.12,11.24,6.31,0,10.55-5.73,10.55-14.33,0-8.03-2.75-12.73-14.33-16.97-14.1-5.16-21.33-15.02-21.33-26.03,0-12.96,8.48-21.67,21.1-21.67,9.06,0,17.31,1.37,21.9,10.32l.46,.69c.12,.46,.23,.8,.23,1.15,0,1.38-1.03,2.52-2.52,2.52h-1.95c-3.67-8.48-8.14-11.35-18.12-11.35-6.42,0-10.66,5.85-10.66,14.45,0,6.19,6.42,12.61,17.89,16.97,16.39,5.62,17.89,17.88,17.89,26.03Z"/><path class="e" d="M376.77,81.29h-14.1l-9.86-30.61h-16.62c-4.24,0-8.03,2.87-9.17,6.88l-6.88,23.73h-3.1L339.16,5.5h.46l5.96-4.01c.69-.57,1.49-.8,2.29-.8,1.72,0,3.44,1.15,4.01,2.98l24.88,77.63Zm-28.32-42.88c0-.92-.23-1.95-.46-2.87l-7.68-24.08-10.55,36.46h9.17c5.39,0,9.52-4.47,9.52-9.52Z"/></g></g></g></g></svg>