<svg xmlns="http://www.w3.org/2000/svg" viewBox="0 0 85.7 53.23"><defs><style>.cls-1{fill:#52517b;}.cls-2{fill:#6e8aa7;}</style></defs><g id="Layer_2" data-name="Layer 2"><g id="Layer_1-2" data-name="Layer 1"><path class="cls-1" d="M42.85,0C25.48,0,10.07,9.85.44,25.06a3,3,0,0,0,0,3.11c9.63,15.21,25,25.06,42.41,25.06s32.79-9.85,42.41-25.06a3,3,0,0,0,0-3.11C75.64,9.85,60.22,0,42.85,0ZM64.92,43.58a40.67,40.67,0,0,1-44.14,0c-14.41-9.13-14.41-24.8,0-33.92a40.61,40.61,0,0,1,44.14,0C79.33,18.78,79.33,34.45,64.92,43.58Z"/><path class="cls-2" d="M42.85,7.59a19,19,0,1,0,19,19A19,19,0,0,0,42.85,7.59Zm8.51,19.56a8,8,0,0,0-8,8H42.32a8,8,0,0,0-8-8V26.08a8,8,0,0,0,8-8h1.06a8,8,0,0,0,8,8Z"/></g></g></svg>