<svg xmlns="http://www.w3.org/2000/svg" viewBox="0 0 176.95 70.54"><defs><style>.cls-1{fill:#6e8aa7;}.cls-2{fill:#52517b;}</style></defs><g id="Layer_2" data-name="Layer 2"><g id="Layer_1-2" data-name="Layer 1"><path class="cls-1" d="M177,32.79v4.37a32.8,32.8,0,0,0-32.76,32.76h-4.37a32.79,32.79,0,0,0-32.76-32.76V32.79A32.8,32.8,0,0,0,139.82,0h4.37A32.8,32.8,0,0,0,177,32.79Z"/><path class="cls-2" d="M79.61,34.71V70.54H69V34.71c0-8.06-2.57-13.44-9.18-13.44-5.07,0-9.67,1.27-12.66,3.32a4.63,4.63,0,0,0-2,3.81V70.54H34.49V34.71c0-8.06-2.58-13.44-9.19-13.44-5.64,0-10.74,1.66-13.41,4.32a4.39,4.39,0,0,0-1.25,3.15v41.8H0V21.43a6.88,6.88,0,0,1,6.88-6.88h3.76v2.3a3.43,3.43,0,0,0,5.75,2.53c4-3.73,8.73-5.94,13.17-5.94,5.16,0,8.87,1.72,11.37,4.85a6.8,6.8,0,0,0,9.74.78c4.07-3.54,8.86-5.63,13.37-5.63C75.24,13.44,79.61,22,79.61,34.71Z"/><path class="cls-2" d="M123.46,59.06C120.91,66,114.85,70.54,108,70.54c-9.52,0-15.9-5.6-15.9-20V19H84.81V18a3.61,3.61,0,0,1,3.39-3.58C95.86,13.81,98.07,11,98.44,3a3.15,3.15,0,0,1,3.14-3h1.15V13.43h17V19H109.54a6.88,6.88,0,0,0-6.88,6.81L102.39,53c0,9.07,3.59,12.54,8.85,12.54,5,0,8.18-2.76,9.79-7.06a1.41,1.41,0,0,1,1.58-.89A1.12,1.12,0,0,1,123.46,59.06Z"/></g></g></svg>