<svg xmlns="http://www.w3.org/2000/svg" viewBox="0 0 776.24 119.44"><defs><style>.cls-1{fill:#52517b;}.cls-2{fill:#6e8aa7;}</style></defs><g id="Layer_2" data-name="Layer 2"><g id="Layer_1-2" data-name="Layer 1"><path class="cls-1" d="M233.7,73c0,9.24-7.26,15.39-18.14,15.39a24.29,24.29,0,0,1-10.75-2.18c-1.85-.84-3.57-1.92-5.42-2.69a2.72,2.72,0,0,1-1.74-2.48v-8.8h.45c.23.33.34.65.57,1,3.88,5.64,9,13.17,16.89,13.17,6.46,0,8.45-3.6,8.45-10.75,0-5.38-2.1-10.11-10.6-12.31-10.43-2.75-15.87-9.56-15.87-17.8,0-8.58,6.57-14.29,16.43-14.29a34.54,34.54,0,0,1,13.25,2.64l2.09.86a2.5,2.5,0,0,1,1.55,2.29v8.28h-.45c-.23-.33-.34-.66-.57-1-2.82-4.11-6.85-9-11.91-10.49a14,14,0,0,0-4-.59c-5.78,0-8.47,2.94-8.47,9.1s3.37,11.65,12.21,14C228.26,59.09,233.7,65.46,233.7,73Z"/><path class="cls-1" d="M274.62,73c0,9.24-7.26,15.39-18.14,15.39a24.29,24.29,0,0,1-10.75-2.18c-1.85-.84-3.56-1.92-5.42-2.69a2.72,2.72,0,0,1-1.74-2.48v-8.8H239c.22.33.34.66.56,1,3.88,5.64,9,13.17,16.89,13.17,6.46,0,8.45-3.6,8.45-10.75,0-5.38-2.1-10.11-10.6-12.31-10.43-2.74-15.87-9.56-15.87-17.8,0-8.57,6.57-14.29,16.43-14.29a34.54,34.54,0,0,1,13.25,2.64l2.09.87a2.47,2.47,0,0,1,1.55,2.28v8.28h-.45c-.23-.33-.34-.66-.57-1-2.82-4.11-6.84-9-11.9-10.49a14.14,14.14,0,0,0-4-.59c-5.78,0-8.47,2.95-8.47,9.1s3.37,11.65,12.22,14C269.18,59.09,274.62,65.46,274.62,73Z"/><path class="cls-1" d="M79.61,51.48V87.31H69V51.48C69,43.42,66.4,38,59.79,38c-5.07,0-9.67,1.28-12.66,3.32a4.64,4.64,0,0,0-2,3.81V87.31H34.49V51.48C34.49,43.42,31.91,38,25.3,38c-5.64,0-10.74,1.67-13.41,4.32a4.4,4.4,0,0,0-1.25,3.16V87.31H0V38.21a6.88,6.88,0,0,1,6.88-6.88h3.76v2.29a3.43,3.43,0,0,0,5.75,2.53c4-3.73,8.73-5.94,13.17-5.94,5.16,0,8.87,1.72,11.37,4.85a6.8,6.8,0,0,0,9.74.78c4.07-3.54,8.86-5.63,13.37-5.63C75.24,30.21,79.61,38.72,79.61,51.48Z"/><path class="cls-1" d="M130.41,87.87h-8.15c-3.35,0-6.19-2.31-7.07-6.7a1.54,1.54,0,0,0-2.59-.77c-6,5.75-10.9,8-14.75,8-7.61,0-12.65-4.48-12.65-11.2,0-8.61,4.88-11.77,24.59-18a7,7,0,0,0,4.86-6.61V43.76c0-8.85-2.36-12.77-5.94-12.77-6.94,0-11.64,7.5-11.64,11.65,0,2,2.24,4.59,2.24,6.49a5.78,5.78,0,0,1-5.49,5.37c-3.81,0-6.38-3-6.38-7.5,0-6,8.73-16.79,21.94-16.79,9.52,0,15.9,5.37,15.9,17.46V75.22c0,5.42,2,11.74,5.14,12.56C130.48,87.8,130.47,87.87,130.41,87.87ZM114.65,63A3.5,3.5,0,0,0,110,59.68c-11.28,3.87-14.16,6.89-14.16,16.43,0,4,3,6.72,7.61,6.72a15,15,0,0,0,8.86-3.06,5.6,5.6,0,0,0,2.34-4.55ZM117,101.9v.29a9,9,0,0,0-9,9h-.28a9,9,0,0,0-9-9v-.29a9,9,0,0,0,9-9H108A9,9,0,0,0,117,101.9Z"/><path class="cls-1" d="M214.39,113.41l-.53.55c-1.43,1.51-3.8,1.09-5.54.47a26.76,26.76,0,0,1-8.81-5.91c-5.69-5.4-11.13-13.1-16.4-20.55S172.3,72.71,166.5,67.2c-2.73-2.51-5.31-5.09-6.55-6.41,7.41-1.92,11.32-6.44,11.32-13.13,0-9.59-8.21-16-20.43-16H135.09V87.17h9.6V67.49A3,3,0,0,1,146.12,65a3.25,3.25,0,0,1,3.14-.2,25.1,25.1,0,0,1,6.41,4.58c5.69,5.39,11.13,13.09,16.4,20.54s10.81,15.27,16.6,20.77c4.87,4.62,10,7.55,14.78,8.48a16.73,16.73,0,0,0,3.16.31,12,12,0,0,0,9-3.79l.53-.56Zm-69.7-74.9a3.77,3.77,0,0,1,3.77-3.77c7.43,0,12.42,4.59,12.42,11.41,0,8.17-3.66,12.86-10,12.86h-6.15Z"/><path class="cls-1" d="M193.72,10.89V12a8.61,8.61,0,0,0-8.6,8.6H184a8.61,8.61,0,0,0-8.6-8.6V10.89a8.61,8.61,0,0,0,8.6-8.6h1.14A8.61,8.61,0,0,0,193.72,10.89Z"/><path class="cls-1" d="M186.11,31.33h3.76v56q-2.38-3.82-5.24-7.9c-1.81-2.58-3.62-5-5.4-7.22v-34A6.88,6.88,0,0,1,186.11,31.33Z"/><path class="cls-1" d="M325,87.87h-8.15c-3.36,0-6.19-2.31-7.08-6.7a1.54,1.54,0,0,0-2.59-.77c-6,5.75-10.9,8-14.74,8-7.62,0-12.66-4.48-12.66-11.2,0-8.61,4.88-11.77,24.6-18a6.94,6.94,0,0,0,4.85-6.61V43.75c0-8.84-2.35-12.76-5.93-12.76-6.94,0-11.65,7.5-11.65,11.64,0,2,2.24,4.6,2.24,6.5a5.78,5.78,0,0,1-5.48,5.37c-3.81,0-6.39-3-6.39-7.5,0-6,8.74-16.79,21.95-16.79,9.52,0,15.9,5.37,15.9,17.46V75.22c0,5.43,2.05,11.74,5.14,12.56C325.06,87.8,325.05,87.87,325,87.87ZM309.22,63a3.5,3.5,0,0,0-4.64-3.3c-11.29,3.87-14.17,6.89-14.17,16.44,0,4,3,6.71,7.62,6.71a15,15,0,0,0,8.86-3.06,5.61,5.61,0,0,0,2.33-4.55Z"/><path class="cls-1" d="M609.66,112.91l-.53.55c-1.42,1.51-3.79,1.09-5.53.47a26.66,26.66,0,0,1-8.81-5.91c-5.69-5.4-11.14-13.1-16.41-20.55s-10.8-15.26-16.61-20.77c-2.73-2.51-5.31-5.09-6.54-6.41,7.41-1.92,11.31-6.44,11.31-13.13,0-9.59-8.21-16-20.43-16H530.37V86.67H540V67a3,3,0,0,1,1.43-2.53,3.25,3.25,0,0,1,3.14-.2,25.07,25.07,0,0,1,6.4,4.58c5.69,5.39,11.14,13.09,16.41,20.54s10.8,15.27,16.6,20.77c4.87,4.62,10,7.55,14.78,8.48a16.65,16.65,0,0,0,3.16.31,12,12,0,0,0,9-3.79l.53-.56ZM540,38a3.77,3.77,0,0,1,3.77-3.77c7.42,0,12.41,4.59,12.41,11.41,0,8.17-3.66,12.86-10,12.86H540Z"/><path class="cls-1" d="M473.46,77c-2.55,6.9-8.61,11.48-15.47,11.48-9.52,0-15.9-5.6-15.9-20V36.93h-7.28V35.84a3.61,3.61,0,0,1,3.39-3.58c7.66-.55,9.87-3.37,10.24-11.36a3.15,3.15,0,0,1,3.14-3h1.15V31.33h17v5.59H459.54a6.89,6.89,0,0,0-6.88,6.82l-.27,27.11c0,9.07,3.59,12.54,8.85,12.54,5,0,8.18-2.76,9.79-7.06a1.41,1.41,0,0,1,1.58-.89A1.12,1.12,0,0,1,473.46,77Z"/><path class="cls-1" d="M522.78,31.33V85.86c-1.5.42-3.6,1-5.15,1.39l-.12.06h-5.37a4.54,4.54,0,0,0-7.48-3.45,17.56,17.56,0,0,1-11.33,4.57c-9.41,0-15.68-7.61-15.68-19V38.21a6.88,6.88,0,0,1,6.88-6.88h3.76V69.4c0,6.94,4,11.64,10,11.64h.18a14.07,14.07,0,0,0,13.71-14.18V31.33Zm-13.39,70.14v1.15a8.6,8.6,0,0,0-8.6,8.59h-1.15a8.6,8.6,0,0,0-8.6-8.59v-1.15a8.61,8.61,0,0,0,8.6-8.6h1.15A8.61,8.61,0,0,0,509.39,101.47Z"/><path class="cls-1" d="M669.73,87.87h-8.16c-3.35,0-6.18-2.31-7.07-6.7a1.54,1.54,0,0,0-2.59-.77c-6,5.75-10.9,8-14.75,8-7.61,0-12.65-4.48-12.65-11.2,0-8.61,4.88-11.77,24.59-18A7,7,0,0,0,654,52.62V43.75C654,34.91,651.61,31,648,31c-6.94,0-11.64,7.5-11.64,11.64,0,2,2.24,4.6,2.24,6.5a5.78,5.78,0,0,1-5.49,5.37c-3.81,0-6.38-3-6.38-7.5,0-6,8.73-16.79,21.94-16.79,9.52,0,15.9,5.37,15.9,17.46V75.22c0,5.43,2,11.74,5.14,12.56C669.79,87.8,669.78,87.87,669.73,87.87ZM654,63a3.5,3.5,0,0,0-4.64-3.3c-11.29,3.87-14.17,6.89-14.17,16.44,0,4,3,6.71,7.61,6.71a15,15,0,0,0,8.87-3.06A5.61,5.61,0,0,0,654,75.22Z"/><path class="cls-1" d="M727,34.35a4.26,4.26,0,0,1-4.48,4.59c-2.57,0-5.93-4.37-8.51-4.37h0A2.21,2.21,0,0,0,712.11,38a17.46,17.46,0,0,1,3,10.08c0,10.86-8.06,18.14-20.27,18.14-9.74,0-16.23,2.46-16.23,6.27,0,2.91,3.13,4.81,7.95,4.81h13.32c15,0,20.83,7.39,20.83,18.48,0,11.75-9.86,19.59-24.75,19.59s-24.74-6.6-24.74-16.46a9.35,9.35,0,0,1,2.48-6.14,8.21,8.21,0,0,0,.79-10.11,11.85,11.85,0,0,1-2.15-7,6.09,6.09,0,0,1,1.7-4.15c3.87-4.29,4.32-10.54,2-15.82a18.4,18.4,0,0,1-1.54-7.58c0-10.75,8.17-17.91,20.38-17.91a26.45,26.45,0,0,1,7.44,1,16.3,16.3,0,0,0,13-1.77A9.36,9.36,0,0,1,720.12,28C724.26,28,727,30.54,727,34.35ZM680,96.49c0,11.09,6.38,18.48,16,18.48s15.79-6.72,15.79-16.69c0-6.27-3.7-10.41-13.1-10.41H686a5,5,0,0,0-4.5,2.52A12.78,12.78,0,0,0,680,96.49Zm24.4-48.37c0-10.52-3.8-17.46-9.62-17.46s-9.75,6.94-9.75,17.46,3.92,17.69,9.75,17.69S704.44,58.76,704.44,48.12Zm-17-38.37V8.6a8.61,8.61,0,0,0,8.6-8.6h1.15a8.61,8.61,0,0,0,8.6,8.6V9.75a8.6,8.6,0,0,0-8.6,8.59h-1.15A8.6,8.6,0,0,0,687.49,9.75Z"/><path class="cls-1" d="M775.2,73.74a25.35,25.35,0,0,1-23.33,14.69c-15.68,0-26.2-10.75-26.2-26.87,0-22.62,11.53-31.35,28.77-31.35,9.71,0,17.4,3.46,21.32,11.89a5,5,0,0,1-4.55,7.14H750.46a13.61,13.61,0,0,0-13.6,13.59v.09c0,12.38,6.39,22.93,15.9,22.93,10.23,0,16.89-5.06,20.07-12.72a1.5,1.5,0,0,1,1.38-.94A1.1,1.1,0,0,1,775.2,73.74ZM737.4,48.79,753,48.7c8.53-.05,12.72-10.84,6.14-16.27a7.29,7.29,0,0,0-4.77-1.77C745.51,30.66,739.21,35.84,737.4,48.79Zm23.87,52.68v1.15a8.6,8.6,0,0,0-8.6,8.59h-1.14a8.6,8.6,0,0,0-8.6-8.59v-1.15a8.61,8.61,0,0,0,8.6-8.6h1.14A8.61,8.61,0,0,0,761.27,101.47Z"/><path class="cls-1" d="M603.31,30.21c-4.33,0-9,2.35-13.13,6.31a3.43,3.43,0,0,1-5.79-2.5V31.33h-3.76a6.88,6.88,0,0,0-6.88,6.88V72.93c.75.89,1.49,1.8,2.24,2.73,3.13,3.93,5.92,7.84,8.4,11.65V47.59a6.67,6.67,0,0,1,1.22-3.92c3.68-5.09,9.27-8.31,14.68-8.31s8,6.16,8,15.34V87.31h10.63V50.7C618.87,38.38,613.61,30.21,603.31,30.21Z"/><path class="cls-1" d="M379.68,30.4c-17.38,0-32.79,9.86-42.42,25.06a3,3,0,0,0,0,3.12c9.63,15.2,25,25,42.42,25s32.78-9.85,42.41-25a3,3,0,0,0,0-3.12C412.46,40.26,397.05,30.4,379.68,30.4ZM401.74,74a40.6,40.6,0,0,1-44.13,0c-14.42-9.12-14.42-24.8,0-33.92a40.6,40.6,0,0,1,44.13,0C416.16,49.18,416.16,64.86,401.74,74Z"/><path class="cls-2" d="M379.68,38a19,19,0,1,0,19,19A19,19,0,0,0,379.68,38Zm8.5,19.56a8,8,0,0,0-8,8h-1.07a8,8,0,0,0-8-8V56.49a8,8,0,0,0,8-8h1.07a8,8,0,0,0,8,8Z"/></g></g></svg>